<?xml version="1.0" standalone="no"?>
<!DOCTYPE svg PUBLIC "-//W3C//DTD SVG 20010904//EN"
 "http://www.w3.org/TR/2001/REC-SVG-20010904/DTD/svg10.dtd">
<svg version="1.0" xmlns="http://www.w3.org/2000/svg"
 width="102.000000pt" height="102.000000pt" viewBox="0 0 102.000000 102.000000"
 preserveAspectRatio="xMidYMid meet">
<metadata>
Created by potrace 1.14, written by Peter Selinger 2001-2017
</metadata>
<g transform="translate(0.000000,102.000000) scale(0.100000,-0.100000)"
fill="#000000" stroke="none">
<path d="M303 982 c-35 -11 -63 -39 -69 -71 -4 -16 -17 -40 -30 -52 l-23 -22
5 28 c3 16 10 37 15 47 15 29 8 30 -36 5 -58 -33 -69 -61 -50 -133 21 -80 6
-93 -20 -18 l-13 38 -21 -34 c-31 -51 -32 -105 -2 -131 22 -18 51 -72 51 -94
0 -9 -17 2 -44 30 -25 25 -50 45 -55 45 -16 0 -13 -95 3 -134 11 -26 22 -36
48 -41 34 -7 73 -36 89 -68 8 -13 -7 -9 -57 18 -37 19 -69 33 -72 31 -2 -3 3
-29 12 -60 18 -61 57 -101 91 -92 35 9 94 -15 121 -51 31 -41 23 -43 -14 -3
-15 17 -38 31 -52 32 -32 3 -90 -11 -90 -21 0 -4 21 -22 46 -41 39 -27 52 -32
85 -27 42 6 42 5 22 -49 -2 -7 1 -15 7 -19 18 -11 122 -7 134 5 20 20 29 9 24
-27 l-5 -38 99 -2 99 -2 11 30 c10 28 14 30 52 28 79 -4 86 -1 102 36 12 29
19 35 45 35 29 0 119 54 119 71 0 10 -67 24 -95 20 -11 -1 -33 -16 -48 -32
-37 -40 -44 -33 -9 7 30 34 55 45 113 48 21 1 48 11 59 21 19 17 57 121 48
131 -2 2 -34 -12 -71 -32 -37 -19 -67 -33 -67 -30 0 16 65 76 82 76 32 0 55
18 67 51 14 41 14 129 0 129 -5 0 -30 -20 -55 -45 -24 -25 -44 -40 -44 -35 0
22 30 82 49 98 32 27 29 85 -6 139 l-16 25 -20 -52 c-10 -28 -20 -50 -22 -48
-2 2 1 26 7 53 20 110 14 132 -54 166 -41 21 -44 19 -27 -12 14 -27 20 -59 10
-59 -11 0 -41 35 -41 48 0 52 -64 92 -147 92 l-47 0 24 -17 c14 -9 43 -33 66
-54 23 -20 54 -40 70 -43 16 -4 37 -18 47 -32 28 -38 13 -40 -21 -3 l-30 33
-64 -16 -63 -16 40 -17 c22 -10 51 -17 65 -17 35 1 82 -18 77 -32 -5 -15 -50
-7 -60 11 -6 10 -12 11 -21 4 -8 -7 -36 -2 -92 15 -101 33 -147 32 -264 -4
-68 -21 -97 -26 -102 -18 -14 20 -8 26 22 26 17 0 47 7 68 16 l37 17 -35 9
c-88 23 -92 23 -122 -12 -15 -19 -30 -31 -33 -28 -10 10 46 68 66 68 10 0 40
19 67 43 27 23 57 47 68 54 16 10 12 12 -31 11 -27 0 -60 -3 -72 -6z m-66
-212 c-13 -34 -19 -36 -36 -16 -10 11 -7 17 11 30 32 23 38 20 25 -14z m638
-100 l7 -35 -24 35 c-20 27 -23 39 -15 55 10 19 10 19 17 0 4 -11 11 -36 15
-55z m-719 -11 c-16 -37 -20 -30 -10 20 4 19 10 29 16 23 5 -5 2 -23 -6 -43z
m87 -69 c4 -33 15 -85 26 -116 l19 -56 -24 -36 c-13 -19 -24 -47 -25 -61 0
-25 -1 -25 -9 -5 -11 28 -8 44 13 74 19 28 22 53 7 80 -5 10 -11 32 -12 49 -1
17 -5 31 -9 31 -17 0 -52 -75 -52 -109 1 -31 0 -32 -6 -11 -10 33 11 102 39
130 18 18 21 30 17 61 -3 22 -2 37 2 34 5 -2 11 -31 14 -65z m576 -40 c9 0 22
-35 34 -86 2 -12 1 -27 -3 -33 -4 -7 -7 2 -8 19 -1 31 -37 100 -52 100 -4 0
-10 -17 -13 -37 -3 -21 -9 -50 -12 -65 -5 -20 -2 -36 11 -55 22 -34 25 -49 14
-77 -8 -20 -9 -20 -9 5 -1 14 -12 43 -26 63 -23 34 -24 39 -10 66 8 15 20 58
27 93 12 65 12 65 25 36 6 -16 16 -29 22 -29z m-657 -17 c-8 -23 -18 -5 -20
34 l-2 38 14 -30 c7 -16 11 -36 8 -42z m713 -1 c-5 -13 -8 -14 -14 -3 -5 7 -3
24 3 37 10 23 11 23 14 3 2 -11 1 -28 -3 -37z m27 -74 c-6 -6 -7 0 -4 19 5 21
7 23 10 9 2 -10 0 -22 -6 -28z m-785 0 c-3 -7 -5 -2 -5 12 0 14 2 19 5 13 2
-7 2 -19 0 -25z m81 -83 c-3 -3 -9 2 -12 12 -6 14 -5 15 5 6 7 -7 10 -15 7
-18z m229 -124 c46 -47 83 -85 83 -86 0 -1 -15 -2 -32 -2 -18 -1 -27 1 -20 4
11 4 10 9 -2 22 -9 9 -28 31 -42 49 -27 34 -69 43 -92 20 -9 -9 -12 -9 -12 -1
0 7 5 15 10 18 12 8 13 52 1 59 -5 3 -14 21 -20 38 l-10 33 26 -35 c15 -19 64
-73 110 -119z m291 119 c-5 -17 -14 -33 -19 -36 -12 -7 -11 -51 1 -59 6 -3 10
-11 10 -18 0 -8 -3 -8 -12 1 -26 26 -60 13 -114 -45 -30 -31 -56 -54 -60 -50
-4 4 27 39 68 79 41 40 87 92 102 116 31 50 39 54 24 12z m115 15 c-3 -9 -8
-14 -10 -11 -3 3 -2 9 2 15 9 16 15 13 8 -4z m-643 -88 c0 -5 -4 -5 -10 -2 -5
3 -10 14 -10 23 0 15 2 15 10 2 5 -8 10 -19 10 -23z m656 7 c-4 -9 -9 -15 -11
-12 -3 3 -3 13 1 22 4 9 9 15 11 12 3 -3 3 -13 -1 -22z m-454 -136 c-37 -10
-89 32 -66 54 3 4 25 -6 49 -20 42 -26 42 -27 17 -34z m302 29 c-3 -9 -15 -19
-26 -23 -23 -7 -68 -13 -68 -8 0 1 19 16 42 33 41 31 65 30 52 -2z m-107 -33
c-3 -3 -12 -4 -19 -1 -8 3 -5 6 6 6 11 1 17 -2 13 -5z m141 -21 c-2 -10 -11
-19 -21 -21 -16 -3 -17 -1 -7 17 13 25 33 28 28 4z m-408 -13 c0 -5 -7 -10
-16 -10 -8 0 -12 5 -9 10 3 6 10 10 16 10 5 0 9 -4 9 -10z"/>
<path d="M407 939 c-9 -6 -17 -18 -17 -27 0 -10 -5 -23 -12 -30 -7 -7 -10 -12
-7 -13 44 -8 59 -8 64 1 5 8 11 7 21 -1 11 -9 17 -9 29 1 12 10 18 10 29 1 11
-9 20 -10 35 -1 12 6 21 7 21 3 0 -15 48 -13 60 2 7 8 9 15 5 15 -4 0 -2 7 5
15 19 23 -4 47 -35 35 -15 -6 -27 -6 -30 0 -3 5 -15 6 -29 0 -12 -4 -29 -4
-36 0 -8 5 -22 4 -32 -1 -11 -6 -24 -6 -36 0 -11 6 -24 6 -35 0z m87 -34 c-4
-8 -11 -15 -16 -15 -6 0 -5 6 2 15 7 8 14 15 16 15 2 0 1 -7 -2 -15z m57 -8
c-10 -9 -11 -8 -5 6 3 10 9 15 12 12 3 -3 0 -11 -7 -18z"/>
</g>
</svg>
